<svg width="31" height="31" xmlns="http://www.w3.org/2000/svg">

 <title/>
 <metadata id="imagebot_3">image/svg+xmlDiamonds Symbol by Merlin2525.svghttps://openclipart.orghttps://openclipart.org/user-detail/Merlin2525https://openclipart.org/user-detail/Merlin25252015-04-06Released to the Public Domain</metadata>
 <g label="Layer 1" id="imagebot_1">
  <title label="Layer 1"/>
  <path transform="translate(0 -1) matrix(0.0347088 0 0 0.0347088 19.4057 -1.16667)" d="M -319.6688263497066 701.3771692703062 C -338.45431694900856 705.5971556431085 -352.9383778621615 677.3588995997453 -329.645657428548 674.2870640739385 C -309.1490174540208 674.6746126431619 -334.7430447594711 654.2160489712452 -316.24232862455267 647.324540524958 C -294.96157211391517 626.5557901937526 -273.8536957897655 604.8977977957627 -260.2154091572674 578.1655964072127 C -267.0870480552582 569.0541236270428 -278.42794126034295 560.348809271982 -276.94608949572023 547.8811631949906 C -263.5698356806124 543.3267704768107 -243.64308055282885 546.4136215361569 -242.8507340262998 525.2990436483806 C -230.68648906547617 487.1894011789275 -227.44200849576475 446.89602312933243 -224.7755419878227 407.20103256676737 C -238.19974809404317 396.5592182621001 -265.8434629112045 406.6405366274606 -284.6040283966671 401.2200633869602 C -313.0644773854347 393.53661151571555 -273.99115342565545 378.826242661949 -261.45802013919 380.03825151623323 C -250.19648755599928 380.0551481904397 -233.5209985410478 373.1146125155158 -252.37002802556145 367.8101653440194 C -236.46958576136103 367.0764029125521 -213.60010518195014 346.90736694438306 -239.7481452097652 339.6371781634457 C -220.3625203499564 325.71917263210696 -235.30032246955722 295.431564995009 -243.39456843398358 278.01342851811785 C -255.5967889220246 256.98017637239667 -275.66194225603175 241.74701837215963 -298.34125966907567 233.62403462486333 C -302.0131118840977 212.17567183996533 -267.0434291060394 218.515031908656 -252.85949410878578 217.40196769428235 C -231.38210801073802 218.22118765891304 -209.48175079286875 217.14529276861373 -190.7695574959891 205.45156811715282 C -165.48706052173253 193.75382924587552 -143.99381909520483 213.27679417028264 -120.86613516333333 217.40371446775896 C -97.47268972453506 218.91028979543518 -73.13833803420204 213.1950485307571 -50.36019355253924 219.82279418207628 C -43.30240570799796 224.84327309233208 -31.56914351072996 232.77300322787977 -45.70005385542922 236.57860118515413 C -72.68751931414764 251.60092026758474 -97.89058848291492 273.7931566150358 -104.65579177012418 305.31758064896565 C -114.86198764316345 322.853792294516 -96.76927748222377 338.07038953852293 -113.3120788965482 350.64646993825465 C -113.4842200634883 365.4430017529347 -74.92280150774837 367.51067767227505 -96.50954570297117 374.7969233324782 C -81.7154660895178 382.81767044369644 -49.987190231688004 377.7585777620683 -46.74959598049011 395.5727783288818 C -60.17979822258707 406.13790255956644 -79.01317392940643 401.96845504629425 -95.10510623598006 402.95477740822093 C -100.56192580151296 404.81418418227327 -114.27453428626086 398.41778524121185 -112.18707279811815 407.82125472225516 C -113.25629971658844 449.9583857682085 -102.31237757996186 491.3896019829273 -91.72866028929059 531.8290875563014 C -91.71515638664451 551.6416641639505 -42.86104307897557 540.4080463645879 -70.01598044476384 562.8947316141392 C -90.07443221514444 580.163367795691 -60.665955513745104 604.3546016322341 -50.47778164013283 619.715022157781 C -36.61950232497506 636.5650205614054 -12.020027371870214 645.093977978924 -14.073208430534436 669.8276017758527 C 0.043207053488728775 670.8438712253638 16.834033505592828 692.8227828619839 -2.683388772205774 698.2991864455335 C -108.31313232857147 700.5153381103858 -214.02225330272984 702.0409431914177 -319.6688767374031 701.3771692703062 L -319.6688263497066 701.3771692703062 z" id="imagebot_17" stroke-opacity="null" stroke-linecap="round" stroke-linejoin="round" stroke-dasharray="null" stroke-width="3" stroke="#000000" fill="#000000"/>
 </g>
</svg>