<svg width="31" height="31" xmlns="http://www.w3.org/2000/svg">

 <title/>
 <metadata id="imagebot_3">image/svg+xmlDiamonds Symbol by Merlin2525.svghttps://openclipart.orghttps://openclipart.org/user-detail/Merlin2525https://openclipart.org/user-detail/Merlin25252015-04-06Released to the Public Domain</metadata>
 <g label="Layer 1" id="imagebot_1">
  <title label="Layer 1"/>
  <path transform="translate(0 -3) matrix(0.0347387 0 0 0.0347387 5.3534 22.8333)" d="M 133.58746003672738 122.71017629874841 C 117.54689211319707 103.98484574250696 158.71235920814857 103.4836201772462 152.24508047799435 82.72623185210905 C 164.0694977506906 55.21992565543486 194.81421736188528 38.570462960070586 199.3418623323262 7.313738952647256 C 186.87244219657978 -1.3734032918651522 179.70086710779378 -22.382893188440306 203.49042197129052 -19.88863597156326 C 220.9362278746377 -33.020527425703634 218.75586688997723 -59.893324208923104 224.00237849884797 -79.6140788125137 C 228.91712840980975 -111.44380785624656 230.0301072214153 -143.65994707238997 232.14111049815418 -175.7511868328256 C 211.95523842051907 -177.30167104872217 191.27004642729702 -176.22166394657788 171.60143913301096 -181.39405372334238 C 172.16719873045642 -202.73605963748915 212.18818424263134 -194.54708597855225 214.00968757308257 -214.68577337624185 C 243.10870003623987 -215.21161358312332 215.62147018682174 -258.67436121043386 203.77126709197606 -269.04385465817074 C 188.603129409761 -286.53656733421934 178.50036736481255 -314.150641990054 190.03137413928624 -335.753860863142 C 206.5244743088067 -346.7122000601024 243.81672829214963 -340.0417711345074 242.13112160406573 -368.8400879595432 C 230.9144279226748 -375.23384037311416 216.6731506005847 -371.17355598518816 204.10140104745537 -372.3042811593815 C 204.87453900055542 -385.73295769970866 205.647657103138 -399.16161438951826 206.42079505623806 -412.5902909298454 C 223.04675473895816 -413.86914066514674 239.67275412271306 -415.14808965303536 256.2987138054331 -416.4270584914413 C 247.85960377628427 -425.1979302184992 235.22953340292776 -431.65280237525593 232.0690134188264 -444.0596536800439 C 242.81921994046965 -461.7314974254356 268.7279763444064 -460.1715246622046 287.28870641006785 -460.00444285694516 C 305.33693581656496 -461.2493283569134 338.2433767765477 -449.21074385159943 313.6425312654387 -429.81990484779635 C 311.6486063405378 -425.0580237716098 292.24319705693665 -413.2178848891042 304.2354703050723 -414.50868463590206 C 319.5901432996341 -414.50868463590206 334.944776593161 -414.50868463590206 350.29940988668795 -414.50868463590206 C 350.25528218642756 -401.3809419399059 349.9023796874491 -388.12274164331967 352.98542310199747 -375.275665413352 C 341.26472478290475 -366.54693633481094 303.2576536666889 -382.73175796854923 314.0794808552415 -355.7993500814692 C 326.2647805349255 -344.53916391637586 344.92702614675505 -344.8363261623938 360.3824206667875 -339.8772897470322 C 369.3972949541695 -338.97665192044025 376.5686318367463 -336.62750198602083 373.3199954057462 -326.08997390818763 C 375.01441572357174 -306.5253833252666 370.07826695481396 -286.84452826172253 356.6301567579169 -271.9930063326128 C 347.11050366265306 -256.49584632389485 325.72951133226184 -237.09518131396095 332.0589877703749 -219.15706272768176 C 344.0341101714458 -221.1063636893864 353.65379002406996 -213.2434943308893 344.08903655319136 -204.40106148847443 C 353.9047005644619 -197.13337019426294 388.46939419950166 -198.79769712765534 380.99351067842065 -180.60277239730576 C 363.4812849437324 -174.80584564096765 344.6687312138769 -177.22091914379223 326.50002901706034 -176.62937372419734 C 331.337659667783 -126.96363715587643 338.0265495745935 -77.29319601492328 349.20324446335076 -28.657562347912318 C 355.7336478389517 -17.865391832409273 381.6748796894138 -9.570833271229851 360.385219589746 4.498677523485917 C 352.4399308828543 30.69975264718621 377.81760654330634 50.31809843132406 393.75586489997124 67.13458338039555 C 411.27984214098166 80.25926909670666 402.77756776535125 106.66726601416059 427.5688392902244 110.87902970064133 C 447.09305392068035 129.7920866002756 400.7634945652527 129.28855837499225 388.86890571341996 129.3298077502243 C 310.1253371840461 130.1788739325175 231.29682829056324 131.36676859692676 152.58406776425014 128.82935635514366 C 146.14049055191452 128.01614020734016 138.179639039353 128.20217925675107 133.58747988724485 122.7101564482309 L 133.58746003672738 122.71017629874841 z" id="imagebot_15" stroke-opacity="null" stroke-linecap="round" stroke-linejoin="round" stroke-dasharray="null" stroke-width="3" stroke="#000000" fill="#ffffff"/>
 </g>
</svg>