<svg width="31" height="31" xmlns="http://www.w3.org/2000/svg">

 <title/>
 <metadata id="imagebot_3">image/svg+xmlDiamonds Symbol by Merlin2525.svghttps://openclipart.orghttps://openclipart.org/user-detail/Merlin2525https://openclipart.org/user-detail/Merlin25252015-04-06Released to the Public Domain</metadata>
 <g label="Layer 1" id="imagebot_1">
  <title label="Layer 1"/>
  <path transform="translate(1 3) matrix(0.0346998 0 0 0.0346998 14.9437 0.833333)" d="M -215.8271685173161 604.8982269702466 C -214.9947052400477 586.1540741802484 -177.22920448209118 595.3946894216328 -198.0199495490439 577.1333336573631 C -191.08487996522257 554.6070800187141 -169.55087706307245 539.6050716718704 -156.53512567600083 520.2815891649277 C -146.55722507072758 503.8310561712534 -124.08102188652825 484.0062486205608 -134.9492786698706 463.6662438643247 C -154.9088007491238 453.0062030775339 -149.24468450862238 429.3040404392988 -124.83158788949322 434.5096311668665 C -109.13295659524272 420.0306624719173 -108.05197745112253 395.8449967969686 -102.73981722751927 376.13078491306607 C -97.91806749945951 352.5352490150005 -94.96745677779984 328.51217576184575 -95.73698967048 304.4046483297378 C -124.353294068969 304.47450525453394 -153.50746435004544 303.1033746768028 -181.10665497652363 295.3423676469833 C -175.76024367944072 273.9625804416925 -141.30007645984958 278.5572617717535 -127.18107796055148 265.4231104342968 C -140.30013592802356 253.6245410673887 -100.65878306330512 254.80439991221732 -111.03145829767058 236.1432701978237 C -111.74323185919593 214.77149717128577 -128.58031540805172 208.58718440420932 -142.06894150430034 193.00475870187586 C -160.0888415115721 168.6544016535551 -131.8380218269713 144.3239464824707 -116.14759552525351 127.86162119720287 C -98.65825323280168 109.96954734103983 -78.65560723930668 90.90641115529841 -73.3024792971737 65.60021063967055 C -80.50476449827025 59.682025851324255 -96.95709114147496 51.20829119108027 -80.16921846643754 43.11799682140654 C -57.24111100746467 39.2310628821165 -32.78063532680346 38.75750124333209 -10.31004206773116 45.134020730832276 C 4.604802544485835 59.666111982086356 -33.07498466357066 60.458637935236155 -16.86291165055104 78.78145481798953 C 2.359153332411495 101.81603636610812 -23.556563640130264 113.70369668681926 -38.858092377174614 127.01858683653181 C -47.76457360869716 138.26936800430127 -74.34783350859954 153.1064369198591 -69.77419893845394 164.76815464387244 C -43.747809973610174 163.86075879526442 -28.583037472570652 138.66528751607245 -10.01866942592926 123.74884006810491 C 10.343088101207513 97.63200537162132 30.041653255163908 139.83619719462698 43.062327637755175 154.17818067703553 C 59.10293538821867 175.91366384930916 48.03634676212005 205.12710089040104 23.874933518587795 214.46173008110827 C 11.891809063827282 226.80221058273617 3.9354278048389233 261.95363888252086 32.60798410562205 256.7204374010117 C 49.25908146327663 262.7729741717369 16.331969394981172 263.4250802643091 35.23373436711955 269.0202936489136 C 47.79496733063388 273.84381794512575 96.7868441739194 284.86840845828357 69.79812407325437 299.6548735594303 C 46.89148316451241 304.83294893994633 23.229582233821645 304.61927566929165 -0.04010097242661459 302.52822378163637 C -1.4750969222671415 337.87603762362306 3.575514853321806 373.0843665925533 13.99322213972738 406.8953471704037 C 16.578996914350284 416.5147086833746 19.164790770351203 426.1340320335895 21.750584626352122 435.75327905829255 C 34.19410456908872 435.50712928231064 59.886111466156706 432.7864300839693 48.012685853420976 453.2759183553249 C 23.035276561819842 467.0512993999034 38.3214447895877 496.0411599351675 52.167426932703734 512.532126368788 C 69.33009603408505 534.2313167601378 94.92560840269255 554.5452754354269 96.02192897471116 584.2536643400223 C 102.88614940208123 588.3447881051094 125.73060409997635 599.5839296323092 119.12270382305314 608.3829254616529 C 9.771925214039584 607.8225053902894 -99.64166929129433 610.0028772082836 -208.93674935797526 605.996875470379 L -212.73205452019045 605.6487166476995 L -215.8271494359381 604.8981124819786 L -215.8271494359381 604.8981124819786 L -215.8271685173161 604.8982269702466 z" id="imagebot_13" stroke-opacity="null" stroke-linecap="round" stroke-linejoin="round" stroke-dasharray="null" stroke-width="3" stroke="#000000" fill="#ffffff"/>
 </g>
</svg>