<svg width="31" height="31" xmlns="http://www.w3.org/2000/svg">

 <title/>
 <metadata id="imagebot_3">image/svg+xmlDiamonds Symbol by Merlin2525.svghttps://openclipart.orghttps://openclipart.org/user-detail/Merlin2525https://openclipart.org/user-detail/Merlin25252015-04-06Released to the Public Domain</metadata>
 <g label="Layer 1" id="imagebot_1">
  <title label="Layer 1"/>
  <path transform="translate(0 -1) matrix(0.0346349 0 0 0.0346349 15.8365 3.83333)" d="M -163.2096622851282 574.0452144019284 C -182.23511758800083 576.940207322642 -209.56906999149857 558.868616650869 -185.48293754452283 542.4452969616261 C -165.10000376732881 531.7650342200843 -184.65928202843486 503.9535699083702 -163.10497335971888 490.444623269631 C -141.18787590623674 460.523151855065 -117.85434453687483 429.9367427537123 -106.93213808155832 394.0368273197118 C -108.45614077390965 376.83790396889844 -142.52131939716395 348.368149173793 -108.00981819606599 342.78982332930957 C -79.55290500098047 346.09799337224393 -89.96088597510393 303.4937484406725 -80.12545199425276 285.03379445771844 C -74.21128842400128 257.0142020418731 -69.91226849292812 228.52743982445634 -70.97344832870778 199.82881837511692 C -90.79124303139983 199.2754160521141 -111.0146801516467 201.58282879476462 -130.4434776136785 196.87097587461625 C -142.83658158326682 180.60376584767496 -102.44366379758173 172.5042300156394 -95.77849302954968 157.8209380729619 C -81.79362836242731 136.71702724302685 -116.25097387373742 113.39979691741382 -101.50090198850211 88.45240788010274 C -92.07947829433019 50.68732702035819 -48.49398297816097 26.203177421847922 -11.614392927125095 40.036931413418394 C 26.575312010006314 49.94057620622311 54.805459574274494 95.05347932166015 36.654102461757134 132.57898917510903 C 35.2049577847547 139.8185181634966 23.8632168001551 149.2053111958376 27.651108448347486 154.97062812439117 C 44.18737625849906 166.44658103585635 63.33385775507156 176.4476336211959 73.8107378074402 194.16753833022273 C 58.97702345550243 204.92307566934264 34.156184854494995 196.73205475733434 15.648251466106785 201.84123656272564 C -1.189730551565276 216.77648830494795 15.442622855350407 247.3140667241374 16.305111080102336 267.80496774776134 C 21.557832631837755 291.2170701479927 26.195081108428894 314.8355980988971 32.214585645839634 338.0344285100809 C 44.86885044855535 342.9704751185886 70.86035756252232 348.6861644250623 56.6025771985025 369.19128358128944 C 36.2766789621586 385.69214190196425 46.226238361522576 411.97494866772325 57.69349738298837 430.4916302829233 C 71.96589434956974 459.0871566866866 96.46585596051636 480.9318050568405 111.47507821681683 508.8668312801711 C 117.04887599359216 521.7638005120364 97.1233857285327 544.605239595162 121.95679424549763 539.2639128145162 C 148.8789460593576 544.9827536561147 132.7686969714469 582.312451749598 108.57635416831198 573.4926633556547 C 19.438497709507374 576.6313025436011 -69.88243758286768 577.9053740107408 -159.02241317735965 574.4336501621929 L -163.20969850966986 574.0451781773868 L -163.20969850966986 574.0451781773868 L -163.2096622851282 574.0452144019284 z" id="imagebot_4" stroke-linecap="round" stroke-linejoin="round" stroke-width="3" stroke="#000000" fill="#ffffff"/>
 </g>
</svg>