<svg width="31" height="31" xmlns="http://www.w3.org/2000/svg">

 <title/>
 <metadata id="imagebot_3">image/svg+xmlDiamonds Symbol by Merlin2525.svghttps://openclipart.orghttps://openclipart.org/user-detail/Merlin2525https://openclipart.org/user-detail/Merlin25252015-04-06Released to the Public Domain</metadata>
 <g label="Layer 1" id="imagebot_1">
  <title label="Layer 1"/>
  <path transform="translate(2 0) matrix(0.034578 0 0 0.034578 16.6227 0.83333)" d="M -226.33368431144294 700.9920346649949 C -248.17724427791177 701.7348706381529 -280.1469574388939 690.4484292834394 -257.8125255773407 665.2717364302938 C -233.49643617213783 655.6868740590018 -262.1343220725495 623.9180097140329 -237.76539833091314 608.9530538466661 C -218.205182580381 581.1007196535222 -191.62200400426445 555.6659480400388 -183.59978023825227 521.6531258666722 C -184.84560866884766 498.585628467323 -212.380305790773 484.9339801398103 -199.24383576435622 459.4016347353188 C -212.131779861446 418.5434801681249 -209.15329854610022 371.5154588731782 -185.62728701866683 334.7873913679234 C -165.65051125893172 300.6744494326417 -141.3962650102955 264.5291916607873 -143.95422591724935 223.2478183912484 C -169.00897329207004 233.71032263116996 -195.52967765900192 242.8770364814965 -223.10360884542044 238.12560195558706 C -249.02705455004272 235.71802741563957 -272.27657798904 256.70938346211597 -298.71955408177905 245.29553475986643 C -325.52421036638793 239.7265824475209 -341.4679506047493 203.88636245495957 -321.4822748270565 182.93550257821244 C -299.64178308193743 164.2797375523583 -267.55253985092696 163.67934538739365 -246.72323376467287 142.85902636083765 C -219.2412839374405 120.09356380073709 -193.82185343070566 89.30215644022148 -155.9448784728104 85.27754220723313 C -139.20409701744614 81.44485501186531 -132.02376272518694 64.62260248747032 -122.75699439425046 52.015846732799226 C -115.0561069734245 72.0104007680146 -101.66225452059331 89.69084133205575 -81.50353976295048 98.5548892905156 C -40.510709862895624 122.29944086770217 -30.306458466792662 172.49828396388216 -15.189440678916583 213.76429436623732 C -4.01210614581646 246.08243561411066 5.300010931877523 279.8249279021756 24.017053342985548 308.6770017653196 C 24.21605252201499 322.52410232093973 3.2066135539669176 328.37689774878663 17.396984973358542 344.61005177403604 C 24.777101820310975 388.636852098953 25.094782412399695 433.72057851732416 24.440533170551646 478.26190433028387 C 11.993455488676489 500.0591363304154 0.6557683092922275 524.3879773505895 17.259741909155252 549.4031860148256 C 28.350796317066568 579.9786863382357 55.97264398158495 600.0319935482328 69.56231858992044 628.8845896618192 C 77.24427443220554 643.8244339870755 54.58622137978017 665.5143435212724 82.81640376807638 661.7570779939764 C 108.59718806015428 675.3967363217466 87.77998077581822 708.690441396219 62.13894199798051 699.004697647783 C -33.951527190690626 701.4481551452176 -130.2536383711868 703.8881092126004 -226.33370607187805 700.9920781858651 L -226.33368431144294 700.9920346649949 z" id="imagebot_11" stroke-opacity="null" stroke-linecap="round" stroke-linejoin="round" stroke-dasharray="null" stroke-width="3" stroke="#000000" fill="#ffffff"/>
 </g>
</svg>