<svg width="31" height="31" xmlns="http://www.w3.org/2000/svg">

 <title/>
 <metadata id="imagebot_3">image/svg+xmlDiamonds Symbol by Merlin2525.svghttps://openclipart.orghttps://openclipart.org/user-detail/Merlin2525https://openclipart.org/user-detail/Merlin25252015-04-06Released to the Public Domain</metadata>
 <g label="Layer 1" id="imagebot_1">
  <title label="Layer 1"/>
  <path transform="translate(2 0) matrix(0.0346324 0 0 0.0346324 2.8256 22.8333)" d="M 142.16397277285282 130.43849010114195 C 106.33495726084415 137.04145658643256 105.64405484751408 84.95954489896292 137.81805518023197 83.29748566434387 C 128.17374986178103 60.95240778218749 135.5555426121778 33.537704885153744 149.80958299181646 12.857441031928033 C 170.2511209613294 -21.693074440102578 200.99418930216495 -56.03535041880127 194.64239118822758 -99.28908755922794 C 192.44346845553105 -121.79162489290712 164.56120809397405 -162.13689611246582 207.78654789637272 -156.35917417643066 C 219.47346432696048 -178.79922359247684 212.6766980618543 -211.83662237566472 221.4418337324018 -237.61157987200255 C 229.0961215534467 -286.47210396143436 246.13287149363228 -338.60876718584535 228.01080146456425 -387.0502641038751 C 216.5851772744245 -412.8361259943628 187.55235411204046 -429.80901061975953 190.66853152399725 -461.33175462061405 C 187.38695167025273 -492.071448338418 188.4727997613782 -523.0455520955134 192.05637394152347 -553.6952329091882 C 206.0079838189954 -552.5250192422724 221.5335683829755 -556.6326241703272 234.2541984223432 -550.3091315679407 C 234.15885958254523 -520.5549196018458 262.421763648097 -527.1465225606012 259.03242542353337 -552.4322974570704 C 266.46763822695436 -555.3765068341303 278.77550825197875 -552.8549976875544 288.08678189478576 -553.6952329091882 C 329.4834433199568 -553.6952329091882 370.8803343113202 -553.6952329091882 412.27699573649113 -553.6952329091882 C 407.5407926597852 -536.4448486701441 420.35657788599667 -514.211041521554 436.5850711751814 -534.5202116243983 C 432.1457430987806 -561.5003686754084 469.31916710467044 -552.5717818757105 460.4106903034467 -529.3619970157862 C 460.9353638366956 -498.61126116411685 464.7045193269605 -466.79595800737854 456.06727498232544 -436.8524916720819 C 441.9997571341962 -424.89530696291445 441.77795027888 -401.36167307505127 424.1544291503401 -387.26084517237183 C 409.9923070742292 -360.8227168587732 416.23336245684334 -328.87513766184327 417.80830132136055 -300.1570038363123 C 423.8063838456983 -257.65596832827094 433.70980052576726 -215.68419767733093 436.1786701443739 -172.6943239187097 C 434.41277812082944 -149.32159297525885 482.52689069155406 -156.20058985056403 461.7809020373792 -127.43202033251288 C 439.10752154314696 -108.12203708307737 452.37924818453496 -75.51176915789125 461.3582018068952 -52.451776238656066 C 479.0787835216779 -12.594425004906611 516.4315675938672 23.207685349326198 510.7936744257612 69.95349158551687 C 506.32303352068607 90.37583782132629 543.314434492442 83.47083109639641 533.6988249480695 109.76880924939633 C 533.4198790674085 142.18059424443732 485.25640976526927 121.34443198979864 463.9215838270062 128.15230925862784 C 356.6806552060956 129.4529394795752 249.40634766077702 131.4613681856298 142.16390390299503 130.43844418790343 L 142.16397277285282 130.43849010114195 z" id="imagebot_9" stroke-opacity="null" stroke-linecap="round" stroke-linejoin="round" stroke-dasharray="null" stroke-width="3" stroke="#000000" fill="#ffffff"/>
 </g>
</svg>